<svg xmlns="http://www.w3.org/2000/svg" width="345.36187744140625" height="331.91925048828125" viewBox="-142.7178955078125 -138.154052734375 345.36187744140625 331.91925048828125"><title>Neo4j Graph Visualization</title><desc>Created using Neo4j (http://www.neo4j.com/)</desc><g class="layer relationships"><g class="relationship" transform="translate(65.75458628582892 164.76520020352314) rotate(255.15080477422123)"><path class="outline" fill="#A5ABB6" stroke="none" d="M 25 0.5 L 46.39203707121503 0.5 L 46.39203707121503 -0.5 L 25 -0.5 Z M 91.95453707121503 0.5 L 113.34657414243006 0.5 L 113.34657414243006 3.5 L 120.34657414243006 0 L 113.34657414243006 -3.5 L 113.34657414243006 -0.5 L 91.95453707121503 -0.5 Z"/><text text-anchor="middle" pointer-events="none" font-size="8px" fill="#000000" x="69.17328707121503" y="3" transform="rotate(180 69.17328707121503 0)" font-family="sans-serif">ACTED_IN</text></g><g class="relationship" transform="translate(173.64396856662506 32.70425523594536) rotate(183.32477792315876)"><path class="outline" fill="#A5ABB6" stroke="none" d="M 25 0.5 L 51.30472901564666 0.5 L 51.30472901564666 -0.5 L 25 -0.5 Z M 87.07816651564666 0.5 L 113.38289553129331 0.5 L 113.38289553129331 3.5 L 120.38289553129331 0 L 113.38289553129331 -3.5 L 113.38289553129331 -0.5 L 87.07816651564666 -0.5 Z"/><text text-anchor="middle" pointer-events="none" font-size="8px" fill="#000000" x="69.19144776564666" y="3" transform="rotate(180 69.19144776564666 0)" font-family="sans-serif">WROTE</text></g><g class="relationship" transform="translate(98.03237106128252 -104.42958531221794) rotate(478.3784824156249)"><path class="outline" fill="#A5ABB6" stroke="none" d="M 25 0.5 L 46.85939554114948 0.5 L 46.85939554114948 -0.5 L 25 -0.5 Z M 92.42189554114948 0.5 L 114.28129108229896 0.5 L 114.28129108229896 3.5 L 121.28129108229896 0 L 114.28129108229896 -3.5 L 114.28129108229896 -0.5 L 92.42189554114948 -0.5 Z"/><text text-anchor="middle" pointer-events="none" font-size="8px" fill="#000000" x="69.64064554114948" y="3" transform="rotate(180 69.64064554114948 0)" font-family="sans-serif">ACTED_IN</text></g><g class="relationship" transform="translate(-31.657284443925406 -109.1540485983175) rotate(425.72904505230633)"><path class="outline" fill="#A5ABB6" stroke="none" d="M 25 0.5 L 46.900512622018454 0.5 L 46.900512622018454 -0.5 L 25 -0.5 Z M 92.46301262201845 0.5 L 114.36352524403691 0.5 L 114.36352524403691 3.5 L 121.36352524403691 0 L 114.36352524403691 -3.5 L 114.36352524403691 -0.5 L 92.46301262201845 -0.5 Z"/><text text-anchor="middle" pointer-events="none" font-size="8px" fill="#000000" x="69.68176262201845" y="3" font-family="sans-serif">ACTED_IN</text></g><g class="relationship" transform="translate(-113.71788663001135 -10.186165540331377) rotate(373.61952366143265)"><path class="outline" fill="#A5ABB6" stroke="none" d="M 25 0.5 L 51.78257377810675 0.5 L 51.78257377810675 -0.5 L 25 -0.5 Z M 87.55601127810675 0.5 L 114.3385850562135 0.5 L 114.3385850562135 3.5 L 121.3385850562135 0 L 114.3385850562135 -3.5 L 114.3385850562135 -0.5 L 87.55601127810675 -0.5 Z"/><text text-anchor="middle" pointer-events="none" font-size="8px" fill="#000000" x="69.66929252810675" y="3" font-family="sans-serif">WROTE</text></g><g class="relationship" transform="translate(-84.63290058193968 116.8960359031848) rotate(320.69380269119665)"><path class="outline" fill="#A5ABB6" stroke="none" d="M 25 0.5 L 46.163253210012144 0.5 L 46.163253210012144 -0.5 L 25 -0.5 Z M 93.05387821001214 0.5 L 114.21713142002429 0.5 L 114.21713142002429 3.5 L 121.21713142002429 0 L 114.21713142002429 -3.5 L 114.21713142002429 -0.5 L 93.05387821001214 -0.5 Z"/><text text-anchor="middle" pointer-events="none" font-size="8px" fill="#000000" x="69.60856571001214" y="3" font-family="sans-serif">DIRECTED</text></g></g><g class="layer nodes"><g class="node" aria-label="graph-node248" transform="translate(65.75458628582892,164.76520020352314)"><circle class="outline" cx="0" cy="0" r="25" fill="#C990C0" stroke="#b261a5" stroke-width="2px"/><text class="caption" text-anchor="middle" pointer-events="none" x="0" y="0" font-size="10px" fill="#FFFFFF" font-family="sans-serif"> Samuel L.</text><text class="caption" text-anchor="middle" pointer-events="none" x="0" y="10" font-size="10px" fill="#FFFFFF" font-family="sans-serif"> Jackson</text></g><g class="node" aria-label="graph-node243" transform="translate(28.505777260697162,24.272663600505762)"><circle class="outline" cx="0" cy="0" r="25" fill="#F79767" stroke="#f36924" stroke-width="2px"/><text class="caption" text-anchor="middle" pointer-events="none" x="0" y="-5" font-size="10px" fill="#FFFFFF" font-family="sans-serif"> Captain</text><text class="caption" text-anchor="middle" pointer-events="none" x="0" y="5" font-size="10px" fill="#FFFFFF" font-family="sans-serif"> America:</text><text class="caption" text-anchor="middle" pointer-events="none" x="0" y="15" font-size="10px" fill="#FFFFFF" font-family="sans-serif"> Th</text></g><g class="node" aria-label="graph-node245" transform="translate(173.64396856662506,32.70425523594536)"><circle class="outline" cx="0" cy="0" r="25" fill="#C990C0" stroke="#b261a5" stroke-width="2px"/><text class="caption" text-anchor="middle" pointer-events="none" x="0" y="0" font-size="10px" fill="#FFFFFF" font-family="sans-serif"> Christofer</text><text class="caption" text-anchor="middle" pointer-events="none" x="0" y="10" font-size="10px" fill="#FFFFFF" font-family="sans-serif"> Markus</text></g><g class="node" aria-label="graph-node249" transform="translate(98.03237106128252,-104.42958531221794)"><circle class="outline" cx="0" cy="0" r="25" fill="#C990C0" stroke="#b261a5" stroke-width="2px"/><text class="caption" text-anchor="middle" pointer-events="none" x="0" y="0" font-size="10px" fill="#FFFFFF" font-family="sans-serif"> Hugo</text><text class="caption" text-anchor="middle" pointer-events="none" x="0" y="10" font-size="10px" fill="#FFFFFF" font-family="sans-serif"> Weavi…</text></g><g class="node" aria-label="graph-node247" transform="translate(-31.657284443925406,-109.1540485983175)"><circle class="outline" cx="0" cy="0" r="25" fill="#C990C0" stroke="#b261a5" stroke-width="2px"/><text class="caption" text-anchor="middle" pointer-events="none" x="0" y="0" font-size="10px" fill="#FFFFFF" font-family="sans-serif"> Chris</text><text class="caption" text-anchor="middle" pointer-events="none" x="0" y="10" font-size="10px" fill="#FFFFFF" font-family="sans-serif"> Evans</text></g><g class="node" aria-label="graph-node246" transform="translate(-113.71788663001135,-10.186165540331377)"><circle class="outline" cx="0" cy="0" r="25" fill="#C990C0" stroke="#b261a5" stroke-width="2px"/><text class="caption" text-anchor="middle" pointer-events="none" x="0" y="0" font-size="10px" fill="#FFFFFF" font-family="sans-serif"> Stephen</text><text class="caption" text-anchor="middle" pointer-events="none" x="0" y="10" font-size="10px" fill="#FFFFFF" font-family="sans-serif"> McFe…</text></g><g class="node" aria-label="graph-node244" transform="translate(-84.63290058193968,116.8960359031848)"><circle class="outline" cx="0" cy="0" r="25" fill="#C990C0" stroke="#b261a5" stroke-width="2px"/><text class="caption" text-anchor="middle" pointer-events="none" x="0" y="0" font-size="10px" fill="#FFFFFF" font-family="sans-serif"> Joe</text><text class="caption" text-anchor="middle" pointer-events="none" x="0" y="10" font-size="10px" fill="#FFFFFF" font-family="sans-serif"> Johnst…</text></g></g></svg>