<svg xmlns="http://www.w3.org/2000/svg" width="245.51210021972656" height="299.1298522949219" viewBox="-140.99893188476562 -154.36073303222656 245.51210021972656 299.1298522949219"><title>Neo4j Graph Visualization</title><desc>Created using Neo4j (http://www.neo4j.com/)</desc><g class="layer relationships"><g class="relationship" transform="translate(75.51315780800385 -10.150411054227064) rotate(234.1725302708344)"><path class="outline" fill="#A5ABB6" stroke="none" d="M 21.40063509461097,12.933012701892217 L 21.90063509461097,12.06698729810778 A 95.48834174648651 95.48834174648651 0 0 0 57.80245022816144,24.122815990355207 L 57.678431363417374,25.115095850670627 A 96.48834174648651 96.48834174648651 0 0 1 21.40063509461097,12.933012701892217 Z M 77.076831105829,25.573347250256347 L 76.99980599581622,24.576318097007785 A 95.48834174648651 95.48834174648651 0 0 0 113.43084894334392,14.229219706838721 L 112.05520322027529,11.563211671478925 L 119.88080864636154,11.463714358905236 L 115.26504324076875,17.78389708731845 L 113.88939751770012,15.117889051958654 A 96.48834174648651 96.48834174648651 0 0 1 77.076831105829,25.573347250256347"/><text text-anchor="middle" pointer-events="none" font-size="8px" fill="#000000" x="67.37789095540931" y="28.333227219327327" transform="rotate(180 67.37789095540931 25.333227219327327)" font-family="sans-serif">trek</text></g><g class="relationship" transform="translate(-7.663135810471142 -125.36072179205445) rotate(495.38840447698533)"><path class="outline" fill="#A5ABB6" stroke="none" d="M 25 0.5 L 60.113489355526795 0.5 L 60.113489355526795 -0.5 L 25 -0.5 Z M 79.4494268555268 0.5 L 114.56291621105359 0.5 L 114.56291621105359 3.5 L 121.56291621105359 0 L 114.56291621105359 -3.5 L 114.56291621105359 -0.5 L 79.4494268555268 -0.5 Z"/><text text-anchor="middle" pointer-events="none" font-size="8px" fill="#000000" x="69.7814581055268" y="3" transform="rotate(180 69.7814581055268 0)" font-family="sans-serif">trek</text></g><g class="relationship" transform="translate(-111.99892054184635 -22.430005128968666) rotate(434.67259694440384)"><path class="outline" fill="#A5ABB6" stroke="none" d="M 25 0.5 L 58.480032074956185 0.5 L 58.480032074956185 -0.5 L 25 -0.5 Z M 77.81596957495618 0.5 L 111.29600164991237 0.5 L 111.29600164991237 3.5 L 118.29600164991237 0 L 111.29600164991237 -3.5 L 111.29600164991237 -0.5 L 77.81596957495618 -0.5 Z"/><text text-anchor="middle" pointer-events="none" font-size="8px" fill="#000000" x="68.14800082495618" y="3" font-family="sans-serif">trek</text></g><g class="relationship" transform="translate(75.51315780800385 -10.150411054227064) rotate(234.1725302708344)"><path class="outline" fill="#A5ABB6" stroke="none" d="M 25 0.5 L 56.54291176217997 0.5 L 56.54291176217997 -0.5 L 25 -0.5 Z M 78.55463051217997 0.5 L 110.09754227435994 0.5 L 110.09754227435994 3.5 L 117.09754227435994 0 L 110.09754227435994 -3.5 L 110.09754227435994 -0.5 L 78.55463051217997 -0.5 Z"/><text text-anchor="middle" pointer-events="none" font-size="8px" fill="#000000" x="67.54877113717997" y="3" transform="rotate(180 67.54877113717997 0)" font-family="sans-serif">road</text></g><g class="relationship" transform="translate(75.51315780800385 -10.150411054227064) rotate(234.1725302708344)"><path class="outline" fill="#A5ABB6" stroke="none" d="M 21.40063509461097,-12.933012701892217 L 21.90063509461097,-12.06698729810778 A 95.48834174648651 95.48834174648651 0 0 1 37.33745826222802,-19.228536525317892 L 36.99912012466355,-20.169561128965114 A 96.48834174648651 96.48834174648651 0 0 0 21.40063509461097,-12.933012701892217 Z M 97.96660283915531,-21.609805409633807 L 97.67307725504159,-20.65385419148997 A 95.48834174648651 95.48834174648651 0 0 1 113.43084894334392,-14.229219706838721 L 112.05520322027529,-11.563211671478925 L 119.88080864636154,-11.463714358905236 L 115.26504324076875,-17.78389708731845 L 113.88939751770012,-15.117889051958654 A 96.48834174648651 96.48834174648651 0 0 0 97.96660283915531,-21.609805409633807"/><text text-anchor="middle" pointer-events="none" font-size="8px" fill="#000000" x="67.3778909554093" y="-22.333227219327327" transform="rotate(180 67.3778909554093 -25.333227219327327)" font-family="sans-serif">PublicTransport</text></g></g><g class="layer nodes"><g class="node" aria-label="graph-node271" transform="translate(75.51315780800385,-10.150411054227064)"><circle class="outline" cx="0" cy="0" r="25" fill="#57C7E3" stroke="#23b3d7" stroke-width="2px"/><text class="caption" text-anchor="middle" pointer-events="none" x="0" y="5" font-size="10px" fill="#2A2C34" font-family="sans-serif"> Darjeeling</text></g><g class="node" aria-label="graph-node273" transform="translate(-74.12086622531194,115.76911603337939)"><circle class="outline" cx="0" cy="0" r="25" fill="#F16667" stroke="#eb2728" stroke-width="2px"/><text class="caption" text-anchor="middle" pointer-events="none" x="0" y="5" font-size="10px" fill="#FFFFFF" font-family="sans-serif"> Sandakp…</text></g><g class="node" aria-label="graph-node270" transform="translate(-7.663135810471142,-125.36072179205445)"><circle class="outline" cx="0" cy="0" r="25" fill="#57C7E3" stroke="#23b3d7" stroke-width="2px"/><text class="caption" text-anchor="middle" pointer-events="none" x="0" y="5" font-size="10px" fill="#2A2C34" font-family="sans-serif"> Rimbik</text></g><g class="node" aria-label="graph-node272" transform="translate(-111.99892054184635,-22.430005128968666)"><circle class="outline" cx="0" cy="0" r="25" fill="#D9C8AE" stroke="#c0a378" stroke-width="2px"/><text class="caption" text-anchor="middle" pointer-events="none" x="0" y="5" font-size="10px" fill="#2A2C34" font-family="sans-serif"> BhikeBh…</text></g></g></svg>