<svg xmlns="http://www.w3.org/2000/svg" width="370.79534912109375" height="220.64295959472656" viewBox="-216.48684692382812 -104.7450180053711 370.79534912109375 220.64295959472656"><title>Neo4j Graph Visualization</title><desc>Created using Neo4j (http://www.neo4j.com/)</desc><g class="layer relationships"><g class="relationship" transform="translate(-187.48684219199615 -73.15041105422706) rotate(366.66416028509525)"><path class="outline" fill="#A5ABB6" stroke="none" d="M 21.40063509461097,12.933012701892217 L 21.90063509461097,12.06698729810778 A 99.30846524818922 99.30846524818922 0 0 0 59.676148536413635,24.658806604875068 L 59.55653416967657,25.651627033386745 A 100.30846524818922 100.30846524818922 0 0 1 21.40063509461097,12.933012701892217 Z M 78.95381399981711,26.09854635451724 L 78.88005206693532,25.10127047630823 A 99.30846524818922 99.30846524818922 0 0 0 117.19541104033047,14.26260838239858 L 115.81666019947633,11.598204862125419 L 123.64214439444353,11.489590340451123 L 119.03374549480264,17.81514640942946 L 117.6549946539485,15.1507428891563 A 100.30846524818922 100.30846524818922 0 0 1 78.95381399981711,26.09854635451724"/><text text-anchor="middle" pointer-events="none" font-size="8px" fill="#000000" x="69.25585997801446" y="28.8453174201331" font-family="sans-serif">trek</text></g><g class="relationship" transform="translate(-42.62674974335795 -56.22511795932551) rotate(436.40378439303004)"><path class="outline" fill="#A5ABB6" stroke="none" d="M 25 0.5 L 60.45677914113766 0.5 L 60.45677914113766 -0.5 L 25 -0.5 Z M 79.79271664113766 0.5 L 115.24949578227532 0.5 L 115.24949578227532 3.5 L 122.24949578227532 0 L 115.24949578227532 -3.5 L 115.24949578227532 -0.5 L 79.79271664113766 -0.5 Z"/><text text-anchor="middle" pointer-events="none" font-size="8px" fill="#000000" x="70.12474789113766" y="3" font-family="sans-serif">trek</text></g><g class="relationship" transform="translate(-8.011645370988962 86.89793593984308) rotate(339.0297977652351)"><path class="outline" fill="#A5ABB6" stroke="none" d="M 25 0.5 L 58.220386898728734 0.5 L 58.220386898728734 -0.5 L 25 -0.5 Z M 77.55632439872873 0.5 L 110.77671129745747 0.5 L 110.77671129745747 3.5 L 117.77671129745747 0 L 110.77671129745747 -3.5 L 110.77671129745747 -0.5 L 77.55632439872873 -0.5 Z"/><text text-anchor="middle" pointer-events="none" font-size="8px" fill="#000000" x="67.88835564872873" y="3" font-family="sans-serif">trek</text></g><g class="relationship" transform="translate(-187.48684219199615 -73.15041105422706) rotate(366.66416028509525)"><path class="outline" fill="#A5ABB6" stroke="none" d="M 25 0.5 L 58.41689415669326 0.5 L 58.41689415669326 -0.5 L 25 -0.5 Z M 80.42861290669326 0.5 L 113.84550706338652 0.5 L 113.84550706338652 3.5 L 120.84550706338652 0 L 113.84550706338652 -3.5 L 113.84550706338652 -0.5 L 80.42861290669326 -0.5 Z"/><text text-anchor="middle" pointer-events="none" font-size="8px" fill="#000000" x="69.42275353169326" y="3" font-family="sans-serif">road</text></g><g class="relationship" transform="translate(-187.48684219199615 -73.15041105422706) rotate(366.66416028509525)"><path class="outline" fill="#A5ABB6" stroke="none" d="M 21.40063509461097,-12.933012701892217 L 21.90063509461097,-12.06698729810778 A 99.30846524818922 99.30846524818922 0 0 1 39.162283377460476,-19.94033688796641 L 38.83610187560874,-20.88564404854955 A 100.30846524818922 100.30846524818922 0 0 0 21.40063509461097,-12.933012701892217 Z M 99.87176175806725,-22.291924512526492 L 99.58946360935869,-21.33259779277158 A 99.30846524818922 99.30846524818922 0 0 1 117.19541104033047,-14.26260838239858 L 115.81666019947633,-11.598204862125419 L 123.64214439444353,-11.489590340451123 L 119.03374549480264,-17.81514640942946 L 117.6549946539485,-15.1507428891563 A 100.30846524818922 100.30846524818922 0 0 0 99.87176175806725,-22.291924512526492"/><text text-anchor="middle" pointer-events="none" font-size="8px" fill="#000000" x="69.25585997801443" y="-22.8453174201331" font-family="sans-serif">PublicTransport</text></g></g><g class="layer nodes"><g class="node" aria-label="graph-node271" transform="translate(-187.48684219199615,-73.15041105422706)"><circle class="outline" cx="0" cy="0" r="25" fill="#57C7E3" stroke="#23b3d7" stroke-width="2px"/><text class="caption" text-anchor="middle" pointer-events="none" x="0" y="5" font-size="10px" fill="#2A2C34" font-family="sans-serif"> Darjeeling</text></g><g class="node" aria-label="graph-node273" transform="translate(125.30848979554453,35.800667440492184)"><circle class="outline" cx="0" cy="0" r="25" fill="#F16667" stroke="#eb2728" stroke-width="2px"/><text class="caption" text-anchor="middle" pointer-events="none" x="0" y="5" font-size="10px" fill="#FFFFFF" font-family="sans-serif"> Sandakp…</text></g><g class="node" aria-label="graph-node270" transform="translate(-42.62674974335795,-56.22511795932551)"><circle class="outline" cx="0" cy="0" r="25" fill="#57C7E3" stroke="#23b3d7" stroke-width="2px"/><text class="caption" text-anchor="middle" pointer-events="none" x="0" y="5" font-size="10px" fill="#2A2C34" font-family="sans-serif"> Rimbik</text></g><g class="node" aria-label="graph-node272" transform="translate(-8.011645370988962,86.89793593984308)"><circle class="outline" cx="0" cy="0" r="25" fill="#D9C8AE" stroke="#c0a378" stroke-width="2px"/><text class="caption" text-anchor="middle" pointer-events="none" x="0" y="5" font-size="10px" fill="#2A2C34" font-family="sans-serif"> BhikeBh…</text></g></g></svg>