<svg xmlns="http://www.w3.org/2000/svg" width="668.5723876953125" height="665.378173828125" viewBox="-135.7464599609375 -517.8336181640625 668.5723876953125 665.378173828125"><title>Neo4j Graph Visualization</title><desc>Created using Neo4j (http://www.neo4j.com/)</desc><g class="layer relationships"><g class="relationship" transform="translate(95.50754517906205 -127.37901582169339) rotate(285.9417491109215)"><path class="outline" fill="#A5ABB6" stroke="none" d="M 25 0.5 L 76.90673137783232 0.5 L 76.90673137783232 -0.5 L 25 -0.5 Z M 111.35204387783232 0.5 L 163.25877525566463 0.5 L 163.25877525566463 3.5 L 170.25877525566463 0 L 163.25877525566463 -3.5 L 163.25877525566463 -0.5 L 111.35204387783232 -0.5 Z"/><text text-anchor="middle" pointer-events="none" font-size="8px" fill="#000000" x="94.12938762783232" y="3" font-family="sans-serif">ORIGIN</text></g><g class="relationship" transform="translate(95.50754517906205 -127.37901582169339) rotate(256.5463498288499)"><path class="outline" fill="#A5ABB6" stroke="none" d="M 25 0.5 L 54.74506147890526 0.5 L 54.74506147890526 -0.5 L 25 -0.5 Z M 113.93256147890526 0.5 L 143.6776229578105 0.5 L 143.6776229578105 3.5 L 150.6776229578105 0 L 143.6776229578105 -3.5 L 143.6776229578105 -0.5 L 113.93256147890526 -0.5 Z"/><text text-anchor="middle" pointer-events="none" font-size="8px" fill="#000000" x="84.33881147890526" y="3" transform="rotate(180 84.33881147890526 0)" font-family="sans-serif">DESTINATION</text></g><g class="relationship" transform="translate(192.89098149882943 -137.504919696718) rotate(256.161930816057)"><path class="outline" fill="#A5ABB6" stroke="none" d="M 25 0.5 L 70.7438557389499 0.5 L 70.7438557389499 -0.5 L 25 -0.5 Z M 105.1891682389499 0.5 L 150.9330239778998 0.5 L 150.9330239778998 3.5 L 157.9330239778998 0 L 150.9330239778998 -3.5 L 150.9330239778998 -0.5 L 105.1891682389499 -0.5 Z"/><text text-anchor="middle" pointer-events="none" font-size="8px" fill="#000000" x="87.9665119889499" y="3" transform="rotate(180 87.9665119889499 0)" font-family="sans-serif">ORIGIN</text></g><g class="relationship" transform="translate(192.89098149882943 -137.504919696718) rotate(444.57930136529586)"><path class="outline" fill="#A5ABB6" stroke="none" d="M 25 0.5 L 68.2343717347724 0.5 L 68.2343717347724 -0.5 L 25 -0.5 Z M 127.4218717347724 0.5 L 170.6562434695448 0.5 L 170.6562434695448 3.5 L 177.6562434695448 0 L 170.6562434695448 -3.5 L 170.6562434695448 -0.5 L 127.4218717347724 -0.5 Z"/><text text-anchor="middle" pointer-events="none" font-size="8px" fill="#000000" x="97.8281217347724" y="3" font-family="sans-serif">DESTINATION</text></g><g class="relationship" transform="translate(398.87338248681874 -272.82035405884346) rotate(189.6152485201231)"><path class="outline" fill="#A5ABB6" stroke="none" d="M 25 0.5 L 105.92457036023379 0.5 L 105.92457036023379 -0.5 L 25 -0.5 Z M 140.3698828602338 0.5 L 221.29445322046757 0.5 L 221.29445322046757 3.5 L 228.29445322046757 0 L 221.29445322046757 -3.5 L 221.29445322046757 -0.5 L 140.3698828602338 -0.5 Z"/><text text-anchor="middle" pointer-events="none" font-size="8px" fill="#000000" x="123.14722661023379" y="3" transform="rotate(180 123.14722661023379 0)" font-family="sans-serif">ORIGIN</text></g><g class="relationship" transform="translate(398.87338248681874 -272.82035405884346) rotate(407.8507699235948)"><path class="outline" fill="#A5ABB6" stroke="none" d="M 25 0.5 L 45.10484247940202 0.5 L 45.10484247940202 -0.5 L 25 -0.5 Z M 104.29234247940202 0.5 L 124.39718495880405 0.5 L 124.39718495880405 3.5 L 131.39718495880405 0 L 124.39718495880405 -3.5 L 124.39718495880405 -0.5 L 104.29234247940202 -0.5 Z"/><text text-anchor="middle" pointer-events="none" font-size="8px" fill="#000000" x="74.69859247940202" y="3" font-family="sans-serif">DESTINATION</text></g><g class="relationship" transform="translate(246.25007356004016 -325.09929842890455) rotate(534.1377996788773)"><path class="outline" fill="#A5ABB6" stroke="none" d="M 25 0.5 L 28.088992006583517 0.5 L 28.088992006583517 -0.5 L 25 -0.5 Z M 62.53430450658352 0.5 L 65.62329651316703 0.5 L 65.62329651316703 3.5 L 72.62329651316703 0 L 65.62329651316703 -3.5 L 65.62329651316703 -0.5 L 62.53430450658352 -0.5 Z"/><text text-anchor="middle" pointer-events="none" font-size="8px" fill="#000000" x="45.31164825658352" y="3" transform="rotate(180 45.31164825658352 0)" font-family="sans-serif">ORIGIN</text></g><g class="relationship" transform="translate(246.25007356004016 -325.09929842890455) rotate(532.0194326906126)"><path class="outline" fill="#A5ABB6" stroke="none" d="M 25 0.5 L 63.65092776324781 0.5 L 63.65092776324781 -0.5 L 25 -0.5 Z M 122.83842776324781 0.5 L 161.48935552649561 0.5 L 161.48935552649561 3.5 L 168.48935552649561 0 L 161.48935552649561 -3.5 L 161.48935552649561 -0.5 L 122.83842776324781 -0.5 Z"/><text text-anchor="middle" pointer-events="none" font-size="8px" fill="#000000" x="93.24467776324781" y="3" transform="rotate(180 93.24467776324781 0)" font-family="sans-serif">DESTINATION</text></g><g class="relationship" transform="translate(303.99863256339796 -245.0938176815463) rotate(204.33442064153553)"><path class="outline" fill="#A5ABB6" stroke="none" d="M 25 0.5 L 64.25804100475445 0.5 L 64.25804100475445 -0.5 L 25 -0.5 Z M 98.70335350475445 0.5 L 137.9613945095089 0.5 L 137.9613945095089 3.5 L 144.9613945095089 0 L 137.9613945095089 -3.5 L 137.9613945095089 -0.5 L 98.70335350475445 -0.5 Z"/><text text-anchor="middle" pointer-events="none" font-size="8px" fill="#000000" x="81.48069725475445" y="3" transform="rotate(180 81.48069725475445 0)" font-family="sans-serif">ORIGIN</text></g><g class="relationship" transform="translate(303.99863256339796 -245.0938176815463) rotate(533.7025343693591)"><path class="outline" fill="#A5ABB6" stroke="none" d="M 25 0.5 L 62.66445117586545 0.5 L 62.66445117586545 -0.5 L 25 -0.5 Z M 121.85195117586545 0.5 L 159.5164023517309 0.5 L 159.5164023517309 3.5 L 166.5164023517309 0 L 159.5164023517309 -3.5 L 159.5164023517309 -0.5 L 121.85195117586545 -0.5 Z"/><text text-anchor="middle" pointer-events="none" font-size="8px" fill="#000000" x="92.25820117586545" y="3" transform="rotate(180 92.25820117586545 0)" font-family="sans-serif">DESTINATION</text></g><g class="relationship" transform="translate(340.92390129484716 -352.5114727506023) rotate(528.9702034773204)"><path class="outline" fill="#A5ABB6" stroke="none" d="M 25 0.5 L 76.97533605501788 0.5 L 76.97533605501788 -0.5 L 25 -0.5 Z M 111.42064855501788 0.5 L 163.39598461003575 0.5 L 163.39598461003575 3.5 L 170.39598461003575 0 L 163.39598461003575 -3.5 L 163.39598461003575 -0.5 L 111.42064855501788 -0.5 Z"/><text text-anchor="middle" pointer-events="none" font-size="8px" fill="#000000" x="94.19799230501788" y="3" transform="rotate(180 94.19799230501788 0)" font-family="sans-serif">ORIGIN</text></g><g class="relationship" transform="translate(340.92390129484716 -352.5114727506023) rotate(499.1513000303302)"><path class="outline" fill="#A5ABB6" stroke="none" d="M 25 0.5 L 56.897913036082784 0.5 L 56.897913036082784 -0.5 L 25 -0.5 Z M 116.08541303608278 0.5 L 147.98332607216557 0.5 L 147.98332607216557 3.5 L 154.98332607216557 0 L 147.98332607216557 -3.5 L 147.98332607216557 -0.5 L 116.08541303608278 -0.5 Z"/><text text-anchor="middle" pointer-events="none" font-size="8px" fill="#000000" x="86.49166303608278" y="3" transform="rotate(180 86.49166303608278 0)" font-family="sans-serif">DESTINATION</text></g><g class="relationship" transform="translate(291.35728399303116 -147.14374933423352) rotate(229.74792213604053)"><path class="outline" fill="#A5ABB6" stroke="none" d="M 25 0.5 L 89.3288896061083 0.5 L 89.3288896061083 -0.5 L 25 -0.5 Z M 123.7742021061083 0.5 L 188.1030917122166 0.5 L 188.1030917122166 3.5 L 195.1030917122166 0 L 188.1030917122166 -3.5 L 188.1030917122166 -0.5 L 123.7742021061083 -0.5 Z"/><text text-anchor="middle" pointer-events="none" font-size="8px" fill="#000000" x="106.5515458561083" y="3" transform="rotate(180 106.5515458561083 0)" font-family="sans-serif">ORIGIN</text></g><g class="relationship" transform="translate(291.35728399303116 -147.14374933423352) rotate(470.5681607935416)"><path class="outline" fill="#A5ABB6" stroke="none" d="M 25 0.5 L 79.79685941904975 0.5 L 79.79685941904975 -0.5 L 25 -0.5 Z M 138.98435941904975 0.5 L 193.7812188380995 0.5 L 193.7812188380995 3.5 L 200.7812188380995 0 L 193.7812188380995 -3.5 L 193.7812188380995 -0.5 L 138.98435941904975 -0.5 Z"/><text text-anchor="middle" pointer-events="none" font-size="8px" fill="#000000" x="109.39060941904975" y="3" transform="rotate(180 109.39060941904975 0)" font-family="sans-serif">DESTINATION</text></g><g class="relationship" transform="translate(252.6112276472067 -58.686339080589754) rotate(248.0260121374863)"><path class="outline" fill="#A5ABB6" stroke="none" d="M 25 0.5 L 117.54284221880997 0.5 L 117.54284221880997 -0.5 L 25 -0.5 Z M 151.98815471880997 0.5 L 244.53099693761993 0.5 L 244.53099693761993 3.5 L 251.53099693761993 0 L 244.53099693761993 -3.5 L 244.53099693761993 -0.5 L 151.98815471880997 -0.5 Z"/><text text-anchor="middle" pointer-events="none" font-size="8px" fill="#000000" x="134.76549846880997" y="3" transform="rotate(180 134.76549846880997 0)" font-family="sans-serif">ORIGIN</text></g><g class="relationship" transform="translate(252.6112276472067 -58.686339080589754) rotate(468.26640926704215)"><path class="outline" fill="#A5ABB6" stroke="none" d="M 25 0.5 L 31.63358130943952 0.5 L 31.63358130943952 -0.5 L 25 -0.5 Z M 90.82108130943952 0.5 L 97.45466261887904 0.5 L 97.45466261887904 3.5 L 104.45466261887904 0 L 97.45466261887904 -3.5 L 97.45466261887904 -0.5 L 90.82108130943952 -0.5 Z"/><text text-anchor="middle" pointer-events="none" font-size="8px" fill="#000000" x="61.22733130943952" y="3" transform="rotate(180 61.22733130943952 0)" font-family="sans-serif">DESTINATION</text></g><g class="relationship" transform="translate(90.17078502556699 -488.8335948315717) rotate(431.2495388393846)"><path class="outline" fill="#A5ABB6" stroke="none" d="M 25 0.5 L 70.99776005770157 0.5 L 70.99776005770157 -0.5 L 25 -0.5 Z M 105.44307255770157 0.5 L 151.44083261540314 0.5 L 151.44083261540314 3.5 L 158.44083261540314 0 L 151.44083261540314 -3.5 L 151.44083261540314 -0.5 L 105.44307255770157 -0.5 Z"/><text text-anchor="middle" pointer-events="none" font-size="8px" fill="#000000" x="88.22041630770157" y="3" font-family="sans-serif">ORIGIN</text></g><g class="relationship" transform="translate(90.17078502556699 -488.8335948315717) rotate(460.5612944719482)"><path class="outline" fill="#A5ABB6" stroke="none" d="M 25 0.5 L 63.84740336752104 0.5 L 63.84740336752104 -0.5 L 25 -0.5 Z M 123.03490336752104 0.5 L 161.88230673504208 0.5 L 161.88230673504208 3.5 L 168.88230673504208 0 L 161.88230673504208 -3.5 L 161.88230673504208 -0.5 L 123.03490336752104 -0.5 Z"/><text text-anchor="middle" pointer-events="none" font-size="8px" fill="#000000" x="93.44115336752104" y="3" transform="rotate(180 93.44115336752104 0)" font-family="sans-serif">DESTINATION</text></g><g class="relationship" transform="translate(172.62140726526727 -434.75817864449954) rotate(461.1063066763393)"><path class="outline" fill="#A5ABB6" stroke="none" d="M 25 0.5 L 40.23385000294785 0.5 L 40.23385000294785 -0.5 L 25 -0.5 Z M 74.67916250294785 0.5 L 89.9130125058957 0.5 L 89.9130125058957 3.5 L 96.9130125058957 0 L 89.9130125058957 -3.5 L 89.9130125058957 -0.5 L 74.67916250294785 -0.5 Z"/><text text-anchor="middle" pointer-events="none" font-size="8px" fill="#000000" x="57.45650625294785" y="3" transform="rotate(180 57.45650625294785 0)" font-family="sans-serif">ORIGIN</text></g><g class="relationship" transform="translate(172.62140726526727 -434.75817864449954) rotate(440.8646794143578)"><path class="outline" fill="#A5ABB6" stroke="none" d="M 25 0.5 L 68.17436406788644 0.5 L 68.17436406788644 -0.5 L 25 -0.5 Z M 127.36186406788644 0.5 L 170.5362281357729 0.5 L 170.5362281357729 3.5 L 177.5362281357729 0 L 170.5362281357729 -3.5 L 170.5362281357729 -0.5 L 127.36186406788644 -0.5 Z"/><text text-anchor="middle" pointer-events="none" font-size="8px" fill="#000000" x="97.76811406788644" y="3" font-family="sans-serif">DESTINATION</text></g><g class="relationship" transform="translate(-5.8074485062861765 -468.21253189594967) rotate(404.65391043487864)"><path class="outline" fill="#A5ABB6" stroke="none" d="M 25 0.5 L 88.18398146214625 0.5 L 88.18398146214625 -0.5 L 25 -0.5 Z M 122.62929396214625 0.5 L 185.8132754242925 0.5 L 185.8132754242925 3.5 L 192.8132754242925 0 L 185.8132754242925 -3.5 L 185.8132754242925 -0.5 L 122.62929396214625 -0.5 Z"/><text text-anchor="middle" pointer-events="none" font-size="8px" fill="#000000" x="105.40663771214625" y="3" font-family="sans-serif">ORIGIN</text></g><g class="relationship" transform="translate(-5.8074485062861765 -468.21253189594967) rotate(430.4251121127586)"><path class="outline" fill="#A5ABB6" stroke="none" d="M 25 0.5 L 57.107888739270294 0.5 L 57.107888739270294 -0.5 L 25 -0.5 Z M 116.2953887392703 0.5 L 148.4032774785406 0.5 L 148.4032774785406 3.5 L 155.4032774785406 0 L 148.4032774785406 -3.5 L 148.4032774785406 -0.5 L 116.2953887392703 -0.5 Z"/><text text-anchor="middle" pointer-events="none" font-size="8px" fill="#000000" x="86.7016387392703" y="3" font-family="sans-serif">DESTINATION</text></g><g class="relationship" transform="translate(-9.518246186374766 -369.97889696265025) rotate(379.07131749035636)"><path class="outline" fill="#A5ABB6" stroke="none" d="M 25 0.5 L 63.212079361772766 0.5 L 63.212079361772766 -0.5 L 25 -0.5 Z M 97.65739186177277 0.5 L 135.86947122354553 0.5 L 135.86947122354553 3.5 L 142.86947122354553 0 L 135.86947122354553 -3.5 L 135.86947122354553 -0.5 L 97.65739186177277 -0.5 Z"/><text text-anchor="middle" pointer-events="none" font-size="8px" fill="#000000" x="80.43473561177277" y="3" font-family="sans-serif">ORIGIN</text></g><g class="relationship" transform="translate(-9.518246186374766 -369.97889696265025) rotate(392.2456975886629)"><path class="outline" fill="#A5ABB6" stroke="none" d="M 25 0.5 L 93.593295371013 0.5 L 93.593295371013 -0.5 L 25 -0.5 Z M 152.780795371013 0.5 L 221.374090742026 0.5 L 221.374090742026 3.5 L 228.374090742026 0 L 221.374090742026 -3.5 L 221.374090742026 -0.5 L 152.780795371013 -0.5 Z"/><text text-anchor="middle" pointer-events="none" font-size="8px" fill="#000000" x="123.187045371013" y="3" font-family="sans-serif">DESTINATION</text></g><g class="relationship" transform="translate(-106.74644986306427 -346.7783750953956) rotate(367.0510345214997)"><path class="outline" fill="#A5ABB6" stroke="none" d="M 25 0.5 L 108.19419335141652 0.5 L 108.19419335141652 -0.5 L 25 -0.5 Z M 142.63950585141652 0.5 L 225.83369920283303 0.5 L 225.83369920283303 3.5 L 232.83369920283303 0 L 225.83369920283303 -3.5 L 225.83369920283303 -0.5 L 142.63950585141652 -0.5 Z"/><text text-anchor="middle" pointer-events="none" font-size="8px" fill="#000000" x="125.41684960141652" y="3" font-family="sans-serif">ORIGIN</text></g><g class="relationship" transform="translate(-106.74644986306427 -346.7783750953956) rotate(389.10550085101687)"><path class="outline" fill="#A5ABB6" stroke="none" d="M 25 0.5 L 93.02384640273065 0.5 L 93.02384640273065 -0.5 L 25 -0.5 Z M 152.21134640273067 0.5 L 220.2351928054613 0.5 L 220.2351928054613 3.5 L 227.2351928054613 0 L 220.2351928054613 -3.5 L 220.2351928054613 -0.5 L 152.21134640273067 -0.5 Z"/><text text-anchor="middle" pointer-events="none" font-size="8px" fill="#000000" x="122.61759640273065" y="3" font-family="sans-serif">DESTINATION</text></g><g class="relationship" transform="translate(270.7891678067986 -421.35999693446576) rotate(498.87115579345345)"><path class="outline" fill="#A5ABB6" stroke="none" d="M 25 0.5 L 60.03055384454335 0.5 L 60.03055384454335 -0.5 L 25 -0.5 Z M 94.47586634454335 0.5 L 129.5064201890867 0.5 L 129.5064201890867 3.5 L 136.5064201890867 0 L 129.5064201890867 -3.5 L 129.5064201890867 -0.5 L 94.47586634454335 -0.5 Z"/><text text-anchor="middle" pointer-events="none" font-size="8px" fill="#000000" x="77.25321009454335" y="3" transform="rotate(180 77.25321009454335 0)" font-family="sans-serif">ORIGIN</text></g><g class="relationship" transform="translate(270.7891678067986 -421.35999693446576) rotate(469.4847608623838)"><path class="outline" fill="#A5ABB6" stroke="none" d="M 25 0.5 L 65.8577279560931 0.5 L 65.8577279560931 -0.5 L 25 -0.5 Z M 125.0452279560931 0.5 L 165.9029559121862 0.5 L 165.9029559121862 3.5 L 172.9029559121862 0 L 165.9029559121862 -3.5 L 165.9029559121862 -0.5 L 125.0452279560931 -0.5 Z"/><text text-anchor="middle" pointer-events="none" font-size="8px" fill="#000000" x="95.4514779560931" y="3" transform="rotate(180 95.4514779560931 0)" font-family="sans-serif">DESTINATION</text></g><g class="relationship" transform="translate(-40.276459120425294 -277.49007786915894) rotate(348.76117404854153)"><path class="outline" fill="#A5ABB6" stroke="none" d="M 25 0.5 L 75.83590005017271 0.5 L 75.83590005017271 -0.5 L 25 -0.5 Z M 110.28121255017271 0.5 L 161.11711260034542 0.5 L 161.11711260034542 3.5 L 168.11711260034542 0 L 161.11711260034542 -3.5 L 161.11711260034542 -0.5 L 110.28121255017271 -0.5 Z"/><text text-anchor="middle" pointer-events="none" font-size="8px" fill="#000000" x="93.05855630017271" y="3" font-family="sans-serif">ORIGIN</text></g><g class="relationship" transform="translate(-40.276459120425294 -277.49007786915894) rotate(369.8842147128724)"><path class="outline" fill="#A5ABB6" stroke="none" d="M 25 0.5 L 91.27930340569976 0.5 L 91.27930340569976 -0.5 L 25 -0.5 Z M 150.46680340569975 0.5 L 216.74610681139953 0.5 L 216.74610681139953 3.5 L 223.74610681139953 0 L 216.74610681139953 -3.5 L 216.74610681139953 -0.5 L 150.46680340569975 -0.5 Z"/><text text-anchor="middle" pointer-events="none" font-size="8px" fill="#000000" x="120.87305340569976" y="3" font-family="sans-serif">DESTINATION</text></g><g class="relationship" transform="translate(-69.65373170470005 -182.38943555723083) rotate(328.75510647706034)"><path class="outline" fill="#A5ABB6" stroke="none" d="M 25 0.5 L 107.2315892645712 0.5 L 107.2315892645712 -0.5 L 25 -0.5 Z M 141.6769017645712 0.5 L 223.9084910291424 0.5 L 223.9084910291424 3.5 L 230.9084910291424 0 L 223.9084910291424 -3.5 L 223.9084910291424 -0.5 L 141.6769017645712 -0.5 Z"/><text text-anchor="middle" pointer-events="none" font-size="8px" fill="#000000" x="124.4542455145712" y="3" font-family="sans-serif">ORIGIN</text></g><g class="relationship" transform="translate(-69.65373170470005 -182.38943555723083) rotate(349.189743089446)"><path class="outline" fill="#A5ABB6" stroke="none" d="M 25 0.5 L 106.60089204129861 0.5 L 106.60089204129861 -0.5 L 25 -0.5 Z M 165.7883920412986 0.5 L 247.38928408259721 0.5 L 247.38928408259721 3.5 L 254.38928408259721 0 L 247.38928408259721 -3.5 L 247.38928408259721 -0.5 L 165.7883920412986 -0.5 Z"/><text text-anchor="middle" pointer-events="none" font-size="8px" fill="#000000" x="136.1946420412986" y="3" font-family="sans-serif">DESTINATION</text></g><g class="relationship" transform="translate(25.13194964121579 -204.68062786798083) rotate(318.3095194023398)"><path class="outline" fill="#A5ABB6" stroke="none" d="M 25 0.5 L 62.30752325449021 0.5 L 62.30752325449021 -0.5 L 25 -0.5 Z M 96.7528357544902 0.5 L 134.0603590089804 0.5 L 134.0603590089804 3.5 L 141.0603590089804 0 L 134.0603590089804 -3.5 L 134.0603590089804 -0.5 L 96.7528357544902 -0.5 Z"/><text text-anchor="middle" pointer-events="none" font-size="8px" fill="#000000" x="79.5301795044902" y="3" font-family="sans-serif">ORIGIN</text></g><g class="relationship" transform="translate(25.13194964121579 -204.68062786798083) rotate(287.66723696512577)"><path class="outline" fill="#A5ABB6" stroke="none" d="M 25 0.5 L 63.633490854245764 0.5 L 63.633490854245764 -0.5 L 25 -0.5 Z M 122.82099085424576 0.5 L 161.45448170849153 0.5 L 161.45448170849153 3.5 L 168.45448170849153 0 L 161.45448170849153 -3.5 L 161.45448170849153 -0.5 L 122.82099085424576 -0.5 Z"/><text text-anchor="middle" pointer-events="none" font-size="8px" fill="#000000" x="93.22724085424576" y="3" font-family="sans-serif">DESTINATION</text></g><g class="relationship" transform="translate(59.43098902200706 -33.74173471317362) rotate(287.6823263517593)"><path class="outline" fill="#A5ABB6" stroke="none" d="M 25 0.5 L 126.9473211639694 0.5 L 126.9473211639694 -0.5 L 25 -0.5 Z M 161.3926336639694 0.5 L 263.3399548279388 0.5 L 263.3399548279388 3.5 L 270.3399548279388 0 L 263.3399548279388 -3.5 L 263.3399548279388 -0.5 L 161.3926336639694 -0.5 Z"/><text text-anchor="middle" pointer-events="none" font-size="8px" fill="#000000" x="144.1699774139694" y="3" font-family="sans-serif">ORIGIN</text></g><g class="relationship" transform="translate(59.43098902200706 -33.74173471317362) rotate(392.70436076752605)"><path class="outline" fill="#A5ABB6" stroke="none" d="M 25 0.5 L 57.58362194239149 0.5 L 57.58362194239149 -0.5 L 25 -0.5 Z M 116.77112194239149 0.5 L 149.35474388478298 0.5 L 149.35474388478298 3.5 L 156.35474388478298 0 L 149.35474388478298 -3.5 L 149.35474388478298 -0.5 L 116.77112194239149 -0.5 Z"/><text text-anchor="middle" pointer-events="none" font-size="8px" fill="#000000" x="87.17737194239149" y="3" font-family="sans-serif">DESTINATION</text></g><g class="relationship" transform="translate(-0.7007696883516773 -111.42494091345536) rotate(306.3370678844883)"><path class="outline" fill="#A5ABB6" stroke="none" d="M 25 0.5 L 105.71562475217225 0.5 L 105.71562475217225 -0.5 L 25 -0.5 Z M 140.16093725217223 0.5 L 220.8765620043445 0.5 L 220.8765620043445 3.5 L 227.8765620043445 0 L 220.8765620043445 -3.5 L 220.8765620043445 -0.5 L 140.16093725217223 -0.5 Z"/><text text-anchor="middle" pointer-events="none" font-size="8px" fill="#000000" x="122.93828100217225" y="3" font-family="sans-serif">ORIGIN</text></g><g class="relationship" transform="translate(-0.7007696883516773 -111.42494091345536) rotate(329.0200409142237)"><path class="outline" fill="#A5ABB6" stroke="none" d="M 25 0.5 L 86.73993340559635 0.5 L 86.73993340559635 -0.5 L 25 -0.5 Z M 145.92743340559633 0.5 L 207.6673668111927 0.5 L 207.6673668111927 3.5 L 214.6673668111927 0 L 207.6673668111927 -3.5 L 207.6673668111927 -0.5 L 145.92743340559633 -0.5 Z"/><text text-anchor="middle" pointer-events="none" font-size="8px" fill="#000000" x="116.33368340559635" y="3" font-family="sans-serif">DESTINATION</text></g><g class="relationship" transform="translate(155.69673193358682 -47.357883145516716) rotate(268.5967378466379)"><path class="outline" fill="#A5ABB6" stroke="none" d="M 25 0.5 L 113.20277582715391 0.5 L 113.20277582715391 -0.5 L 25 -0.5 Z M 147.6480883271539 0.5 L 235.85086415430783 0.5 L 235.85086415430783 3.5 L 242.85086415430783 0 L 235.85086415430783 -3.5 L 235.85086415430783 -0.5 L 147.6480883271539 -0.5 Z"/><text text-anchor="middle" pointer-events="none" font-size="8px" fill="#000000" x="130.4254320771539" y="3" transform="rotate(180 130.4254320771539 0)" font-family="sans-serif">ORIGIN</text></g><g class="relationship" transform="translate(155.69673193358682 -47.357883145516716) rotate(469.9298682648975)"><path class="outline" fill="#A5ABB6" stroke="none" d="M 25 0.5 L 55.1418617171323 0.5 L 55.1418617171323 -0.5 L 25 -0.5 Z M 114.3293617171323 0.5 L 144.4712234342646 0.5 L 144.4712234342646 3.5 L 151.4712234342646 0 L 144.4712234342646 -3.5 L 144.4712234342646 -0.5 L 114.3293617171323 -0.5 Z"/><text text-anchor="middle" pointer-events="none" font-size="8px" fill="#000000" x="84.7356117171323" y="3" transform="rotate(180 84.7356117171323 0)" font-family="sans-serif">DESTINATION</text></g></g><g class="layer nodes"><g class="node" aria-label="graph-node5" transform="translate(149.1373062913491,-315.12841805078483)"><circle class="outline" cx="0" cy="0" r="25" fill="#8DCC93" stroke="#5db665" stroke-width="2px"/><text class="caption" text-anchor="middle" pointer-events="none" x="0" y="5" font-size="10px" fill="#2A2C34" font-family="sans-serif"> LAX</text></g><g class="node" aria-label="graph-node13" transform="translate(54.63462096735042,-298.235772417651)"><circle class="outline" cx="0" cy="0" r="25" fill="#8DCC93" stroke="#5db665" stroke-width="2px"/><text class="caption" text-anchor="middle" pointer-events="none" x="0" y="5" font-size="10px" fill="#2A2C34" font-family="sans-serif"> SMF</text></g><g class="node" aria-label="graph-node41" transform="translate(212.0355040520608,64.2450252187546)"><circle class="outline" cx="0" cy="0" r="25" fill="#8DCC93" stroke="#5db665" stroke-width="2px"/><text class="caption" text-anchor="middle" pointer-events="none" x="0" y="5" font-size="10px" fill="#2A2C34" font-family="sans-serif"> FAT</text></g><g class="node" aria-label="graph-node25" transform="translate(503.8258869085235,-156.86755642700362)"><circle class="outline" cx="0" cy="0" r="25" fill="#8DCC93" stroke="#5db665" stroke-width="2px"/><text class="caption" text-anchor="middle" pointer-events="none" x="0" y="5" font-size="10px" fill="#2A2C34" font-family="sans-serif"> LAS</text></g><g class="node" aria-label="graph-node42" transform="translate(113.63787688366189,-224.08631743068577)"><circle class="outline" cx="0" cy="0" r="25" fill="#8DCC93" stroke="#5db665" stroke-width="2px"/><text class="caption" text-anchor="middle" pointer-events="none" x="0" y="5" font-size="10px" fill="#2A2C34" font-family="sans-serif"> TUS</text></g><g class="node" aria-label="graph-node40" transform="translate(204.77742369241628,-234.79089553297962)"><circle class="outline" cx="0" cy="0" r="25" fill="#8DCC93" stroke="#5db665" stroke-width="2px"/><text class="caption" text-anchor="middle" pointer-events="none" x="0" y="5" font-size="10px" fill="#2A2C34" font-family="sans-serif"> ABQ</text></g><g class="node" aria-label="graph-node1" transform="translate(83.84311323201229,-389.0108634857867)"><circle class="outline" cx="0" cy="0" r="25" fill="#8DCC93" stroke="#5db665" stroke-width="2px"/><text class="caption" text-anchor="middle" pointer-events="none" x="0" y="5" font-size="10px" fill="#2A2C34" font-family="sans-serif"> EWR</text></g><g class="node" aria-label="graph-node2" transform="translate(95.54304322548913,118.54457746069438)"><circle class="outline" cx="0" cy="0" r="25" fill="#8DCC93" stroke="#5db665" stroke-width="2px"/><text class="caption" text-anchor="middle" pointer-events="none" x="0" y="5" font-size="10px" fill="#2A2C34" font-family="sans-serif"> IAH</text></g><g class="node" aria-label="graph-node1003" transform="translate(95.50754517906205,-127.37901582169339)"><circle class="outline" cx="0" cy="0" r="25" fill="#ECB5C9" stroke="#da7298" stroke-width="2px"/><text class="caption" text-anchor="middle" pointer-events="none" x="0" y="0" font-size="10px" fill="#2A2C34" font-family="sans-serif"> 11/4/2015</text><text class="caption" text-anchor="middle" pointer-events="none" x="0" y="10" font-size="10px" fill="#2A2C34" font-family="sans-serif"> 05:06:…</text></g><g class="node" aria-label="graph-node963" transform="translate(192.89098149882943,-137.504919696718)"><circle class="outline" cx="0" cy="0" r="25" fill="#ECB5C9" stroke="#da7298" stroke-width="2px"/><text class="caption" text-anchor="middle" pointer-events="none" x="0" y="0" font-size="10px" fill="#2A2C34" font-family="sans-serif"> 11/4/2015</text><text class="caption" text-anchor="middle" pointer-events="none" x="0" y="10" font-size="10px" fill="#2A2C34" font-family="sans-serif"> 15:13:…</text></g><g class="node" aria-label="graph-node659" transform="translate(398.87338248681874,-272.82035405884346)"><circle class="outline" cx="0" cy="0" r="25" fill="#ECB5C9" stroke="#da7298" stroke-width="2px"/><text class="caption" text-anchor="middle" pointer-events="none" x="0" y="5" font-size="10px" fill="#2A2C34" font-family="sans-serif"> 11/29/20…</text></g><g class="node" aria-label="graph-node995" transform="translate(246.25007356004016,-325.09929842890455)"><circle class="outline" cx="0" cy="0" r="25" fill="#ECB5C9" stroke="#da7298" stroke-width="2px"/><text class="caption" text-anchor="middle" pointer-events="none" x="0" y="0" font-size="10px" fill="#2A2C34" font-family="sans-serif"> 11/2/2015</text><text class="caption" text-anchor="middle" pointer-events="none" x="0" y="10" font-size="10px" fill="#2A2C34" font-family="sans-serif"> 11:49:…</text></g><g class="node" aria-label="graph-node979" transform="translate(303.99863256339796,-245.0938176815463)"><circle class="outline" cx="0" cy="0" r="25" fill="#ECB5C9" stroke="#da7298" stroke-width="2px"/><text class="caption" text-anchor="middle" pointer-events="none" x="0" y="0" font-size="10px" fill="#2A2C34" font-family="sans-serif"> 11/1/2015</text><text class="caption" text-anchor="middle" pointer-events="none" x="0" y="10" font-size="10px" fill="#2A2C34" font-family="sans-serif"> 05:51:…</text></g><g class="node" aria-label="graph-node975" transform="translate(340.92390129484716,-352.5114727506023)"><circle class="outline" cx="0" cy="0" r="25" fill="#ECB5C9" stroke="#da7298" stroke-width="2px"/><text class="caption" text-anchor="middle" pointer-events="none" x="0" y="0" font-size="10px" fill="#2A2C34" font-family="sans-serif"> 11/2/2015</text><text class="caption" text-anchor="middle" pointer-events="none" x="0" y="10" font-size="10px" fill="#2A2C34" font-family="sans-serif"> 15:15:…</text></g><g class="node" aria-label="graph-node951" transform="translate(291.35728399303116,-147.14374933423352)"><circle class="outline" cx="0" cy="0" r="25" fill="#ECB5C9" stroke="#da7298" stroke-width="2px"/><text class="caption" text-anchor="middle" pointer-events="none" x="0" y="0" font-size="10px" fill="#2A2C34" font-family="sans-serif"> 11/3/2015</text><text class="caption" text-anchor="middle" pointer-events="none" x="0" y="10" font-size="10px" fill="#2A2C34" font-family="sans-serif"> 11:45:…</text></g><g class="node" aria-label="graph-node959" transform="translate(252.6112276472067,-58.686339080589754)"><circle class="outline" cx="0" cy="0" r="25" fill="#ECB5C9" stroke="#da7298" stroke-width="2px"/><text class="caption" text-anchor="middle" pointer-events="none" x="0" y="0" font-size="10px" fill="#2A2C34" font-family="sans-serif"> 11/1/2015</text><text class="caption" text-anchor="middle" pointer-events="none" x="0" y="10" font-size="10px" fill="#2A2C34" font-family="sans-serif"> 02:27:…</text></g><g class="node" aria-label="graph-node999" transform="translate(90.17078502556699,-488.8335948315717)"><circle class="outline" cx="0" cy="0" r="25" fill="#ECB5C9" stroke="#da7298" stroke-width="2px"/><text class="caption" text-anchor="middle" pointer-events="none" x="0" y="0" font-size="10px" fill="#2A2C34" font-family="sans-serif"> 11/1/2015</text><text class="caption" text-anchor="middle" pointer-events="none" x="0" y="10" font-size="10px" fill="#2A2C34" font-family="sans-serif"> 12:26:…</text></g><g class="node" aria-label="graph-node931" transform="translate(172.62140726526727,-434.75817864449954)"><circle class="outline" cx="0" cy="0" r="25" fill="#ECB5C9" stroke="#da7298" stroke-width="2px"/><text class="caption" text-anchor="middle" pointer-events="none" x="0" y="0" font-size="10px" fill="#2A2C34" font-family="sans-serif"> 11/3/2015</text><text class="caption" text-anchor="middle" pointer-events="none" x="0" y="10" font-size="10px" fill="#2A2C34" font-family="sans-serif"> 21:46:…</text></g><g class="node" aria-label="graph-node1007" transform="translate(-5.8074485062861765,-468.21253189594967)"><circle class="outline" cx="0" cy="0" r="25" fill="#ECB5C9" stroke="#da7298" stroke-width="2px"/><text class="caption" text-anchor="middle" pointer-events="none" x="0" y="0" font-size="10px" fill="#2A2C34" font-family="sans-serif"> 11/3/2015</text><text class="caption" text-anchor="middle" pointer-events="none" x="0" y="10" font-size="10px" fill="#2A2C34" font-family="sans-serif"> 13:44:…</text></g><g class="node" aria-label="graph-node927" transform="translate(-9.518246186374766,-369.97889696265025)"><circle class="outline" cx="0" cy="0" r="25" fill="#ECB5C9" stroke="#da7298" stroke-width="2px"/><text class="caption" text-anchor="middle" pointer-events="none" x="0" y="0" font-size="10px" fill="#2A2C34" font-family="sans-serif"> 11/1/2015</text><text class="caption" text-anchor="middle" pointer-events="none" x="0" y="10" font-size="10px" fill="#2A2C34" font-family="sans-serif"> 05:43:…</text></g><g class="node" aria-label="graph-node983" transform="translate(-106.74644986306427,-346.7783750953956)"><circle class="outline" cx="0" cy="0" r="25" fill="#ECB5C9" stroke="#da7298" stroke-width="2px"/><text class="caption" text-anchor="middle" pointer-events="none" x="0" y="0" font-size="10px" fill="#2A2C34" font-family="sans-serif"> 11/2/2015</text><text class="caption" text-anchor="middle" pointer-events="none" x="0" y="10" font-size="10px" fill="#2A2C34" font-family="sans-serif"> 09:52:…</text></g><g class="node" aria-label="graph-node971" transform="translate(270.7891678067986,-421.35999693446576)"><circle class="outline" cx="0" cy="0" r="25" fill="#ECB5C9" stroke="#da7298" stroke-width="2px"/><text class="caption" text-anchor="middle" pointer-events="none" x="0" y="0" font-size="10px" fill="#2A2C34" font-family="sans-serif"> 11/1/2015</text><text class="caption" text-anchor="middle" pointer-events="none" x="0" y="10" font-size="10px" fill="#2A2C34" font-family="sans-serif"> 17:17:…</text></g><g class="node" aria-label="graph-node919" transform="translate(-40.276459120425294,-277.49007786915894)"><circle class="outline" cx="0" cy="0" r="25" fill="#ECB5C9" stroke="#da7298" stroke-width="2px"/><text class="caption" text-anchor="middle" pointer-events="none" x="0" y="0" font-size="10px" fill="#2A2C34" font-family="sans-serif"> 11/2/2015</text><text class="caption" text-anchor="middle" pointer-events="none" x="0" y="10" font-size="10px" fill="#2A2C34" font-family="sans-serif"> 04:43:…</text></g><g class="node" aria-label="graph-node923" transform="translate(-69.65373170470005,-182.38943555723083)"><circle class="outline" cx="0" cy="0" r="25" fill="#ECB5C9" stroke="#da7298" stroke-width="2px"/><text class="caption" text-anchor="middle" pointer-events="none" x="0" y="0" font-size="10px" fill="#2A2C34" font-family="sans-serif"> 11/4/2015</text><text class="caption" text-anchor="middle" pointer-events="none" x="0" y="10" font-size="10px" fill="#2A2C34" font-family="sans-serif"> 15:09:…</text></g><g class="node" aria-label="graph-node135" transform="translate(25.13194964121579,-204.68062786798083)"><circle class="outline" cx="0" cy="0" r="25" fill="#ECB5C9" stroke="#da7298" stroke-width="2px"/><text class="caption" text-anchor="middle" pointer-events="none" x="0" y="5" font-size="10px" fill="#2A2C34" font-family="sans-serif"> 11/30/20…</text></g><g class="node" aria-label="graph-node955" transform="translate(59.43098902200706,-33.74173471317362)"><circle class="outline" cx="0" cy="0" r="25" fill="#ECB5C9" stroke="#da7298" stroke-width="2px"/><text class="caption" text-anchor="middle" pointer-events="none" x="0" y="0" font-size="10px" fill="#2A2C34" font-family="sans-serif"> 11/2/2015</text><text class="caption" text-anchor="middle" pointer-events="none" x="0" y="10" font-size="10px" fill="#2A2C34" font-family="sans-serif"> 09:18:…</text></g><g class="node" aria-label="graph-node967" transform="translate(-0.7007696883516773,-111.42494091345536)"><circle class="outline" cx="0" cy="0" r="25" fill="#ECB5C9" stroke="#da7298" stroke-width="2px"/><text class="caption" text-anchor="middle" pointer-events="none" x="0" y="0" font-size="10px" fill="#2A2C34" font-family="sans-serif"> 11/3/2015</text><text class="caption" text-anchor="middle" pointer-events="none" x="0" y="10" font-size="10px" fill="#2A2C34" font-family="sans-serif"> 23:26:…</text></g><g class="node" aria-label="graph-node103" transform="translate(155.69673193358682,-47.357883145516716)"><circle class="outline" cx="0" cy="0" r="25" fill="#ECB5C9" stroke="#da7298" stroke-width="2px"/><text class="caption" text-anchor="middle" pointer-events="none" x="0" y="5" font-size="10px" fill="#2A2C34" font-family="sans-serif"> 11/30/20…</text></g></g></svg>